<?xml version="1.0" encoding="UTF-8" standalone="no"?>
<!-- Generator: Adobe Illustrator 22.1.0, SVG Export Plug-In . SVG Version: 6.00 Build 0)  -->

<svg
   xmlns:dc="http://purl.org/dc/elements/1.1/"
   xmlns:cc="http://creativecommons.org/ns#"
   xmlns:rdf="http://www.w3.org/1999/02/22-rdf-syntax-ns#"
   xmlns:svg="http://www.w3.org/2000/svg"
   xmlns="http://www.w3.org/2000/svg"
   xmlns:sodipodi="http://sodipodi.sourceforge.net/DTD/sodipodi-0.dtd"
   xmlns:inkscape="http://www.inkscape.org/namespaces/inkscape"
   version="1.1"
   id="Ebene_1"
   x="0px"
   y="0px"
   viewBox="0 0 773 688"
   xml:space="preserve"
   sodipodi:docname="ifaca.svg"
   width="773"
   height="688"
   inkscape:version="0.92.3 (2405546, 2018-03-11)"><metadata
   id="metadata203"><rdf:RDF><cc:Work
       rdf:about=""><dc:format>image/svg+xml</dc:format><dc:type
         rdf:resource="http://purl.org/dc/dcmitype/StillImage" /><dc:title></dc:title></cc:Work></rdf:RDF></metadata><defs
   id="defs201" /><sodipodi:namedview
   pagecolor="#ffffff"
   bordercolor="#666666"
   borderopacity="1"
   objecttolerance="10"
   gridtolerance="10"
   guidetolerance="10"
   inkscape:pageopacity="0"
   inkscape:pageshadow="2"
   inkscape:window-width="1920"
   inkscape:window-height="982"
   id="namedview199"
   showgrid="false"
   inkscape:zoom="0.66432749"
   inkscape:cx="825.5"
   inkscape:cy="172.5"
   inkscape:window-x="0"
   inkscape:window-y="27"
   inkscape:window-maximized="1"
   inkscape:current-layer="Ebene_1" />
<style
   type="text/css"
   id="style2">
	.st0{fill:#009FE3;}
	.st1{fill:#FFFFFF;}
	.st2{fill:#F9B03E;}
	.st3{fill:#214593;}
</style>
<g
   id="g70"
   transform="translate(-860,343)">
	<polygon
   class="st0"
   points="1227.2,206.8 1227.2,104.1 1218.7,104.1 1218.7,206.8 "
   id="polygon4"
   style="fill:#009fe3" />
	<polygon
   class="st0"
   points="1247.1,104.1 1282.9,104.1 1282.9,111.7 1255.6,111.7 1255.6,151.5 1279.1,151.5 1279.1,159.2 1255.6,159.2 1255.6,206.8 1247.1,206.8 "
   id="polygon6"
   style="fill:#009fe3" />
	<path
   class="st0"
   d="m 1310.1,119.3 -8.5,44 h 17.3 z m 17.6,87.5 -7.2,-35.8 h -20.6 l -7.2,35.8 h -9.2 l 22.9,-102.7 h 7.9 l 22.5,102.7 z"
   id="path8"
   inkscape:connector-curvature="0"
   style="fill:#009fe3" />
	<path
   class="st0"
   d="m 1383.2,203.6 c -3.5,3 -8.1,4.9 -14.1,4.9 -6.6,0 -11.8,-2.3 -15.3,-6.1 -6.5,-6.9 -7.2,-15 -7.2,-46.5 0,-31.5 0.7,-39.5 7.2,-46.5 3.5,-3.7 8.7,-6.1 15.3,-6.1 6.5,0 11.3,2 14.7,5.5 4.5,4.5 6.5,11.4 6.6,19.2 h -8.5 c 0,-5.2 -1,-10.2 -4,-13.6 -2,-2.2 -4.8,-3.5 -8.8,-3.5 -4.2,0 -7.1,1.4 -9.1,3.8 -4.2,5 -4.9,11 -4.9,41.1 0,30.2 0.7,36.1 4.9,41.1 2,2.3 4.9,3.8 9.1,3.8 4,0 6.8,-1.3 8.8,-3.5 3,-3.3 4,-8.4 4,-13.6 h 8.5 c -0.2,8.5 -2.3,15.5 -7.2,20 z"
   id="path10"
   inkscape:connector-curvature="0"
   style="fill:#009fe3" />
	<path
   class="st0"
   d="m 1431.6,207.7 v -6.8 l 24.5,-56.3 c 2.5,-5.6 4.9,-12.8 4.9,-21.6 0,-8.1 -4.5,-12 -10.1,-12 -5.6,0 -10.2,3.9 -10.2,12 v 7.4 h -8.1 v -7.2 c 0,-6.8 2,-11.1 5.2,-14.3 3,-3 8.1,-5.1 13.1,-5.1 5.1,0 9.8,1.9 12.8,4.9 3.2,3.2 5.3,7.6 5.3,14.7 0,7.8 -2.9,16.7 -5.9,23.8 l -22.9,53.2 h 28.9 v 7.2 h -37.5 z"
   id="path12"
   inkscape:connector-curvature="0"
   style="fill:#009fe3" />
	<path
   class="st0"
   d="m 1512.6,122.7 c 0,-8.1 -4.6,-12 -10.2,-12 -5.6,0 -10.1,3.9 -10.1,12 v 66.7 c 0,8.1 4.5,12 10.1,12 5.6,0 10.2,-3.9 10.2,-12 z m 2.9,80.8 c -3,3 -8.1,5.1 -13.1,5.1 -5.1,0 -10,-2 -13,-5.1 -3.2,-3.2 -5.2,-7.5 -5.2,-14.6 v -65.8 c 0,-7.1 2,-11.4 5.2,-14.6 3,-3 7.9,-5.1 13,-5.1 5.1,0 10.1,2 13.1,5.1 3.2,3.2 5.2,7.5 5.2,14.6 v 65.8 c 0,7.1 -2.1,11.4 -5.2,14.6 z"
   id="path14"
   inkscape:connector-curvature="0"
   style="fill:#009fe3" />
	<path
   class="st0"
   d="m 1535.8,207.4 v -6.8 l 24.5,-56.3 c 2.5,-5.6 4.9,-12.8 4.9,-21.6 0,-8.1 -4.5,-12 -10.1,-12 -5.6,0 -10.2,3.9 -10.2,12 v 7.4 h -8.1 v -7.2 c 0,-6.8 2,-11.1 5.2,-14.3 3,-3 8.1,-5.1 13.1,-5.1 5,0 9.8,1.9 12.8,4.9 3.2,3.2 5.3,7.6 5.3,14.7 0,7.8 -2.9,16.7 -5.9,23.8 l -22.9,53.2 h 28.9 v 7.2 h -37.5 z"
   id="path16"
   inkscape:connector-curvature="0"
   style="fill:#009fe3" />
	<path
   class="st0"
   d="m 1616.8,123.2 c 0,-8.1 -4.6,-12 -10.2,-12 -5.6,0 -10.1,3.9 -10.1,12 v 66.7 c 0,8.1 4.5,12 10.1,12 5.6,0 10.2,-3.9 10.2,-12 z m 2.8,80.8 c -3,3 -8.1,5.1 -13.1,5.1 -5.1,0 -10,-2 -13,-5.1 -3.2,-3.2 -5.2,-7.5 -5.2,-14.6 v -65.8 c 0,-7.1 2,-11.4 5.2,-14.6 3,-3 7.9,-5.1 13,-5.1 5,0 10.1,2 13.1,5.1 3.2,3.2 5.2,7.5 5.2,14.6 v 65.8 c 0,7.1 -2,11.5 -5.2,14.6 z"
   id="path18"
   inkscape:connector-curvature="0"
   style="fill:#009fe3" />
	<path
   d="m 1027.2,156.5 c 0,0 0,0 0,0 0,-0.1 0,-0.1 0,0 0,-0.1 0,-0.1 0,0 z m 34.7,109.6 c -0.5,-6.9 -0.9,-17.3 -0.9,-17.3 h 2 l 0.3,-4.5 c -2.2,-2.1 -4,-6.9 -4.7,-10.3 -0.7,-3.4 -2,-12.2 -2.6,-15.1 -0.6,-2.9 -2.8,-7.9 -2.9,-12.3 -0.1,-2.6 1,-4.8 2.2,-8.5 1.3,-3.8 2.9,-6.5 2.9,-11.4 0,-4.9 -1.5,-7.8 -1.7,-9.9 -0.3,-4.3 1.2,-4 2.7,-10.7 1.4,-6.4 -0.9,-15.1 -0.9,-15.1 0,0 4.2,-4.1 0.4,-7.9 -3.3,-3.3 -6.9,-0.2 -6.9,-0.2 0,0 -4.5,-2.1 -10.9,-2.1 -8.1,0 -13.4,4.2 -13.4,4.2 0,0 -7.6,0.4 -8.9,0.4 -1.3,0 -1.1,0.7 -1.1,0.7 0,0 0,0.8 0,1.5 0,3 1.3,4.7 3.1,5.9 -0.1,0.9 0,2.7 1.5,3.8 0,0 0.3,-1.6 1.4,-2.5 0.3,0.1 1.1,0.3 1.4,0.4 v 1.5 c 0,0 0,0.9 0.7,0.9 0,0 0.6,0.1 0.6,0.1 l -0.6,1.1 h -0.2 c -0.7,-0.8 -1.2,-1.7 -1.5,-2.7 -1.1,0.7 -1.2,2.1 -1.2,2.9 l -1.4,0.1 c -1,4.1 10.1,3 10.1,3 0,3.5 -4.4,12.3 -6.9,13.6 -2.5,1.3 -6.2,4.4 -6.2,4.4 0,0 -9.3,-2.6 -11.7,-3.2 -5.8,-1.5 -11.1,-3.7 -13.9,-5.6 -2.2,-1.5 -3,-5.9 -4,-9.5 -1,-3.6 -3.9,-5.2 -3.9,-5.2 -0.3,-3.6 -3.1,-3.8 -3.1,-3.8 1,1.2 1.1,3.6 1.1,3.6 -0.8,-2.9 -3.2,-3.1 -3.2,-3.1 1.2,1.1 1.2,3.7 1.2,3.7 -0.9,-2.6 -3.1,-2.8 -3.1,-2.8 1.2,1.5 1.1,3.7 1.1,3.7 -0.4,-2 -3,-2.6 -3,-2.6 1.3,1.7 1.2,3.7 1.2,3.7 -0.7,-1.7 -2.8,-2.1 -2.8,-2.1 1.3,1.7 1.4,4.3 1.4,4.3 2.4,2.9 2.9,6.3 4.8,12 1.9,5.7 6.1,9.6 14.2,15.5 8.1,5.8 18.1,10.9 18.1,10.9 0,0 -12.2,6 -14.4,7.2 -2.3,1.2 -3.7,1.6 -5.6,2 -1.9,0.4 -2.5,-0.4 -2.8,-1 -1.7,-3.6 -5.7,-8.8 -7.1,-10.5 -0.5,-0.6 -0.9,-0.5 -0.9,-0.5 -0.5,-3.6 -3.9,-3.5 -3.9,-3.5 1.3,1.2 1.7,4 1.7,4 -1.7,-3.2 -3.9,-2.8 -3.9,-2.8 1.6,1 1.7,4.3 1.7,4.3 -1.2,-2.9 -3.8,-2.7 -3.8,-2.7 1.6,1.7 1.8,4.6 1.8,4.6 -1.1,-2.8 -3.6,-2.4 -3.6,-2.4 1.4,0.9 1.7,4.5 1.7,4.5 -1.5,-2 -3.3,-1.6 -3.3,-1.6 1.5,1.4 1,2.8 2,4.8 1,2 10,16.5 22.4,16.5 13.5,0 21.6,-3.6 21.6,-3.6 0.9,8.9 7.3,15.3 7.3,15.3 -18.4,8 -21.5,18 -22.9,24.1 -1.4,6 0.3,15.1 0.6,17.6 0.1,1.3 -2,1 -3.7,0.2 -1,-0.5 -3.5,-3.1 -6.6,-4.4 -1.5,-0.6 -3.2,-0.3 -3.2,-0.3 -3,-1.4 -5.4,1.1 -5.4,1.1 1.8,-0.4 3.9,1 3.9,1 -3.3,-0.7 -4.7,1.3 -4.7,1.3 2.2,-0.3 4,1 4,1 -3,-0.3 -4.8,1.4 -4.8,1.4 2,-0.5 4.3,1 4.3,1 -3.1,-0.2 -4.3,1.7 -4.3,1.7 2.2,-0.4 4,1 4,1 -2,0 -3.4,1.5 -3.4,1.5 0.7,0 2.2,0.1 3.5,0.8 1.3,0.6 1.2,1 3.7,1.6 2.5,0.7 8,2.5 10.8,3.8 4.1,1.9 6.7,2.8 8.8,2.5 6.4,-0.9 3,-7.3 8.9,-17.6 5.9,-10.3 16.4,-13.4 16.4,-13.4 0.7,5.4 5.9,11.1 8.5,13.9 0.7,0.8 6.7,5.9 6.1,7.4 -1.1,2.6 -5,2.6 -7.9,2.7 -2.9,0 -4.3,3.3 -4.3,3.3 1.7,-1.3 3.8,-0.6 3.8,-0.6 -3.3,0.7 -3.8,3 -3.8,3 2.5,-1 3.9,-0.4 3.9,-0.4 -2.2,0.2 -3.6,3 -3.6,3 2.1,-0.8 3.9,-0.4 3.9,-0.4 -2,0.5 -3.3,3 -3.3,3 1.2,-1 4.2,-0.5 4.2,-0.5 -1.8,0.7 -2.7,2.9 -2.7,2.9 2.3,-0.8 3.9,-0.4 5.4,-0.4 9.8,0 21.1,-15.1 21.1,-17.2 -0.2,-2.2 -2.2,-4.7 -2.9,-13.7 z"
   id="path20"
   inkscape:connector-curvature="0" />
	<path
   d="m 1001.4,47.6 c 0,-1.8 1,-3.4 2.5,-4.2 0,-0.1 0,-0.3 0,-0.5 v -3.7 c 0,-0.9 0.5,-1.6 1.2,-2.1 v 0 l 1.3,-29.1 1.3,29.1 c 0.7,0.4 1.2,1.2 1.2,2.1 v 3.7 c 0,0.2 0,0.3 0,0.5 1.5,0.8 2.5,2.4 2.5,4.2 0,2.2 -1.5,4.1 -3.5,4.7 v 0.9 h 0.1 c 0.3,0 0.6,0.3 0.6,0.6 v 1.5 c 0,0.3 -0.3,0.6 -0.6,0.6 h -0.1 l 0.9,45.1 h -4.7 l 0.9,-45.1 h -0.1 c -0.3,0 -0.6,-0.3 -0.6,-0.6 v -1.5 c 0,-0.3 0.3,-0.6 0.6,-0.6 h 0.1 v -0.9 c -2.1,-0.6 -3.6,-2.5 -3.6,-4.7 z"
   id="path22"
   inkscape:connector-curvature="0" />
	<path
   d="m 1050.6,61.7 v -0.3 h -0.5 c 0,0 -0.1,0 -0.1,0 -0.2,0.3 -0.4,0.4 -0.4,0.4 h -3 c 0,0 -0.2,-0.1 -0.4,-0.4 0,0 -0.1,0 -0.1,0 h -0.5 v 0.3 c 0,0.1 -0.1,0.2 -0.2,0.2 -0.1,0 -0.2,-0.1 -0.2,-0.2 v -0.3 c -0.1,0 -0.1,-0.1 -0.2,-0.2 h -0.2 c 0,0 -0.1,0 -0.1,-0.1 0,0 0,-0.1 0.1,-0.1 h 0.2 v 0 c 0,-0.1 0.1,-0.2 0.2,-0.2 V 59 c 0,-0.1 0.1,-0.2 0.2,-0.2 0.1,0 0.2,0.1 0.2,0.2 v 2.1 h 0.4 c -0.1,-0.3 -0.2,-0.6 -0.2,-1 0,-1.4 0.1,-1.7 0.1,-1.7 h 0.2 c 0,0 0,0.5 0.3,0.5 0.3,0 0.6,0 0.6,0 h 0.2 c 0,-0.2 0,-0.5 0,-0.7 0,-0.2 -0.2,-0.8 -0.2,-0.9 0,-0.2 0.2,-0.5 0.2,-0.5 l -0.2,-0.1 c 0,0 -0.1,0.2 -0.2,0.3 -0.1,0.1 -0.1,0.2 0,0.2 0,0.1 -0.2,0.3 -0.3,0.4 -0.2,0.1 -0.2,-0.4 -0.1,-0.5 0,-0.1 0,-0.8 -0.2,-1.7 -0.2,-0.9 0.4,-1 0.4,-1 0,0 0.1,-0.1 0.2,-0.3 0.1,-0.1 0.3,-0.3 0.3,-0.3 v -0.3 c 0,0 -0.4,-0.1 -0.5,-0.2 -0.1,0 0,-0.2 -0.1,-0.2 -0.1,0 -0.5,-0.4 -0.6,-0.5 -0.1,-0.1 0.1,-0.2 0.2,-0.2 0.2,0.1 0.7,0.4 0.7,0.4 0,0 0.2,0.1 0.2,0.2 0,0.1 0.1,0 0.1,0 0,0 0.1,-0.3 0.1,-0.3 0,-0.1 0.1,0 0.1,0 v 0.4 l 0.2,-0.1 v -0.2 l 0.9,-0.2 c -0.1,0.6 -0.9,0.8 -0.9,0.8 v 0.1 c 0,0 0.1,0.3 0.3,0.3 0.2,0 0,0.2 0.1,0.2 0.1,0 0.2,0.3 0.2,0.5 0.1,0.2 -0.1,0.3 -0.1,0.3 l 0.2,0.1 c 0,0 0.2,-0.1 0.2,-0.4 0.1,-0.3 0.4,-0.2 0.5,-0.2 0.1,0 0.2,0.3 0.3,0.4 0,0.1 0.1,0.6 0.1,0.6 0,0 0,0.4 0.1,0.9 0.1,0.5 0,0.7 0,0.7 0,0 0,0 0,0.1 0,0.1 -0.2,0.3 -0.2,0.3 l -0.2,-0.2 v 0.1 l -0.3,-0.4 -0.2,-0.1 c 0,0 0,0.7 0,0.9 0,0.2 0.1,0.5 0.2,0.5 0.1,0 0.2,0.7 0.2,0.7 0,0 0.3,0 0.6,0 0.3,0 0.3,-0.5 0.3,-0.5 h 0.2 c 0,0 0.1,0.4 0.1,1.7 0,0.4 -0.1,0.8 -0.2,1 h 0.4 v -2 c 0,-0.1 0.1,-0.2 0.2,-0.2 0.1,0 0.2,0.1 0.2,0.2 v 1.8 c 0.1,0 0.2,0.1 0.2,0.2 v 0 h 0.2 c 0,0 0.1,0 0.1,0.1 0,0 0,0.1 -0.1,0.1 h -0.2 c 0,0.1 -0.1,0.1 -0.2,0.2 v 0.3 c 0,0.1 -0.1,0.2 -0.2,0.2 0.2,0 0.1,-0.1 0.1,-0.2 z"
   id="path24"
   inkscape:connector-curvature="0" />
	<path
   d="m 1015.8,68.4 v -0.3 h 1.9 v -0.5 h 1.1 v -2.1 l -1.1,-1.1 v 0 -0.8 h 20.5 v -1.1 h 0.8 v -0.6 h 17.5 v 0.6 h 0.9 v 1.1 h 21 v 0.8 l -1.1,1.1 v 2.1 h 1.1 v 0.5 h 1.9 v 0.3 h 1.5 l -1.3,1.1 v 0.6 l -1.9,1.7 v 1.3 h 0.3 v 0.4 h -0.4 v 1.3 h 0.6 v 0.4 l -0.4,0.5 c 0,0.3 -0.4,0.6 -0.4,0.6 l 0.4,24.1 h 0.2 c 0.2,0 0.3,0.1 0.3,0.3 v 0.1 c 0,0.1 -0.1,0.3 -0.3,0.3 h -3.7 c -0.1,0 -0.3,-0.1 -0.3,-0.3 v -0.1 c 0,-0.1 0.1,-0.3 0.3,-0.3 h 0.2 l 0.4,-24.1 c 0,0 -0.4,-0.3 -0.4,-0.6 L 1075,75.2 V 75 h -7.1 v 0.2 l -0.4,0.5 c 0,0.3 -0.4,0.6 -0.4,0.6 l 0.4,24.1 h 0.2 c 0.2,0 0.3,0.1 0.3,0.3 v 0.1 c 0,0.1 -0.1,0.3 -0.3,0.3 h -3.7 c -0.2,0 -0.3,-0.1 -0.3,-0.3 v -0.1 c 0,-0.1 0.1,-0.3 0.3,-0.3 h 0.2 l 0.4,-24.1 c 0,0 -0.4,-0.3 -0.4,-0.6 l -0.4,-0.5 V 75 h -6.6 v 0.2 l -0.4,0.5 c 0,0.3 -0.4,0.6 -0.4,0.6 l 0.4,24.1 h 0.2 c 0.2,0 0.3,0.1 0.3,0.3 v 0.1 c 0,0.1 -0.1,0.3 -0.3,0.3 h -3.7 c -0.2,0 -0.3,-0.1 -0.3,-0.3 v -0.1 c 0,-0.1 0.1,-0.3 0.3,-0.3 h 0.2 l 0.4,-24.1 c 0,0 -0.4,-0.3 -0.4,-0.6 l -0.4,-0.5 V 75 h -10.3 v 0.2 l -0.4,0.5 c 0,0.3 -0.4,0.6 -0.4,0.6 l 0.4,24.1 h 0.2 c 0.2,0 0.3,0.1 0.3,0.3 v 0.1 c 0,0.1 -0.1,0.3 -0.3,0.3 h -3.7 c -0.2,0 -0.3,-0.1 -0.3,-0.3 v -0.1 c 0,-0.1 0.1,-0.3 0.3,-0.3 h 0.2 l 0.4,-24.1 c 0,0 -0.4,-0.3 -0.4,-0.6 l -0.4,-0.5 V 75 h -6.6 v 0.2 l -0.4,0.5 c 0,0.3 -0.4,0.6 -0.4,0.6 l 0.4,24.1 h 0.2 c 0.2,0 0.3,0.1 0.3,0.3 v 0.1 c 0,0.1 -0.1,0.3 -0.3,0.3 h -3.7 c -0.2,0 -0.3,-0.1 -0.3,-0.3 v -0.1 c 0,-0.1 0.1,-0.3 0.3,-0.3 h 0.2 l 0.4,-24.1 c 0,0 -0.4,-0.3 -0.4,-0.6 L 1028,75.2 V 75 h -6.7 v 0.2 l -0.4,0.5 c 0,0.3 -0.4,0.6 -0.4,0.6 l 0.4,24.1 h 0.2 c 0.2,0 0.3,0.1 0.3,0.3 v 0.1 c 0,0.1 -0.1,0.3 -0.3,0.3 h -3.7 c -0.2,0 -0.3,-0.1 -0.3,-0.3 v -0.1 c 0,-0.1 0.1,-0.3 0.3,-0.3 h 0.2 l 0.4,-24.1 c 0,0 -0.4,-0.3 -0.4,-0.6 l -0.4,-0.5 v -0.4 h 0.7 v -1.3 h -0.4 v -0.4 h 0.3 v -1.3 l -1.9,-1.7 v -0.6 l -1.3,-1.1 z"
   id="path26"
   inkscape:connector-curvature="0" />
	<path
   d="m 1156.9,99.8 c 0,0 -0.1,-0.2 -0.2,-0.2 -0.1,0 -0.2,-0.1 -0.2,-0.1 v -0.1 h 0.1 v -0.3 h -0.1 V 99 h 0.1 v -0.3 h -0.1 v -0.1 h 0.1 v -0.3 h -0.1 v -0.1 h 0.2 v -0.3 h -0.2 v -0.1 h 0.1 v -0.4 h -0.1 v -0.1 h 0.1 V 97 h -0.1 l 0.1,-0.2 h 0.2 v -0.3 h -0.3 v -0.8 l -0.6,-0.5 v -7.9 l 0.1,-0.1 h -0.1 v -0.7 l 0.1,-0.4 0.1,-0.2 v -0.2 l 0.2,-0.2 H 1156 V 85 l 1.5,-1.1 h -1.3 l 0.3,-0.3 h -0.4 v -0.2 l 0.4,-0.3 h -0.4 v -0.2 h -0.1 v -0.2 h -0.2 l -0.2,-0.1 v -0.3 l 0.1,-0.2 v -0.2 c 0,0 0,-0.1 0,-0.2 0,0 0,-0.2 0,-0.2 0,0 -0.2,-0.1 -0.1,-0.1 0.1,0 0.1,-0.2 0.1,-0.2 l -0.1,-0.1 V 81 c 0,0 0.1,0 0.2,-0.1 0,0 0.1,-0.2 0.1,-0.2 0,0 0,-0.1 0,-0.1 0,0 0.1,-0.1 0.1,-0.2 0,0 0,-0.1 0,-0.1 0,0 0,0 -0.1,0.1 -0.1,0.1 -0.2,0.1 -0.2,0.2 0,0 0,0.2 -0.1,0.2 0,0 -0.1,-0.1 -0.1,-0.1 v -0.1 c 0,0 0,0 0,0 0.1,0 0.1,-0.1 0.1,-0.1 0,0 0,0 0,0 0,0 0,-0.1 0,-0.1 -0.1,0 0,-0.1 -0.1,-0.1 0,0 0,0 0,0 -0.1,0 -0.1,0.1 -0.1,0.2 0,0 0,0 0,0 0,0 0,0 -0.1,0 -0.1,0 -0.3,0.3 -0.3,0.4 0,0.1 0,0.2 0,0.3 0,0.1 -0.1,0.1 -0.1,0.1 l 0.2,-0.1 v 0.1 l -0.1,0.1 v 0.2 c 0,0 0,-0.1 0,-0.2 -0.1,0 -0.1,0 -0.2,0.1 0,0 -0.2,0.1 -0.2,0.1 v -0.4 l 0.2,-0.2 v -0.1 l 0.1,-0.1 0.1,-0.2 h -0.4 v -0.3 l -0.4,-0.3 v -0.2 h -0.2 v -3.2 l 0.1,-0.3 h -0.1 l 0.7,-0.6 v -0.2 l 0.3,-0.2 h -1 V 75 l -0.3,-0.2 v -0.5 h -1 c 0,-0.2 -0.1,-0.3 -0.2,-0.3 -0.1,0 -0.2,0.1 -0.2,0.3 h -1.6 c 0,-0.2 -0.1,-0.3 -0.2,-0.3 -0.1,0 -0.2,0.1 -0.2,0.3 h -1.6 c 0,-0.2 -0.1,-0.3 -0.2,-0.3 -0.1,0 -0.2,0.1 -0.2,0.3 h -0.4 v -6.1 c 0,-0.1 0,-0.1 -0.1,-0.1 -0.1,0 -0.1,0 -0.1,0.1 v 6.1 h -1 c 0,-0.2 -0.1,-0.3 -0.2,-0.3 -0.1,0 -0.2,0.1 -0.2,0.3 h -1.1 V 75 l -0.3,0.2 v 0.3 h -1 l 0.3,0.2 v 0.2 l 0.7,0.6 h -0.1 l 0.1,0.3 V 80 h -0.2 v 0.2 l -0.4,0.3 v 0.3 h -0.4 l 0.1,0.2 0.1,0.1 v 0.1 l 0.2,0.2 v 1.3 h -0.1 l -0.3,0.3 v 0.2 h -0.8 v -0.4 l 0.3,-0.3 h -2.3 c 0,-0.1 0,-0.2 0,-0.2 h -0.2 V 82 h -0.1 l -0.1,-0.1 c 0,0 0.1,-0.1 0.1,-0.1 0,-0.1 0,-0.1 0,-0.1 0,-0.1 -0.1,-0.1 -0.1,-0.1 l -0.1,-0.1 v -0.3 l 0.1,-0.1 h -0.1 c 0,0 0,-0.1 0,-0.1 0,0 -0.1,-0.1 -0.1,-0.1 0,0 0,0 0.1,-0.1 0,-0.1 0,-0.1 0,-0.1 0,0 0,-0.1 0,-0.1 -0.1,0 -0.1,0 -0.1,0 0,0 -0.1,-0.1 0,-0.1 0.1,0 0.1,-0.1 0,-0.1 -0.1,0 -0.1,-0.1 -0.1,-0.1 0,0 0,-0.1 -0.1,-0.1 0,0 -0.1,0.1 -0.1,0.1 0,0 0,0 -0.1,0.1 -0.1,0 0,0.1 0,0.1 0.1,0 0,0.1 0,0.1 0,0 -0.1,0 -0.1,0 -0.1,0 0,0.1 0,0.1 0,0 0,0 0,0.1 0,0.1 0.1,0.1 0.1,0.1 0,0 0,0.1 -0.1,0.1 0,0 0,0.1 0,0.1 h -0.1 l 0.1,0.1 v 0.3 l -0.1,0.1 c 0,0 -0.1,0 -0.1,0.1 0,0 0,0 0,0.1 0,0.1 0.1,0.1 0.1,0.1 l -0.1,0.1 h -0.1 v 0.1 h -0.2 c 0,0 0,0.1 0,0.2 h -2.4 c 0,-0.1 0,-0.2 0,-0.2 h -0.2 V 82 h -0.1 l -0.1,-0.1 c 0,0 0.1,-0.1 0.1,-0.1 0,-0.1 0,-0.1 0,-0.1 0,-0.1 -0.1,-0.1 -0.1,-0.1 l -0.1,-0.1 v -0.3 l 0.1,-0.1 h -0.1 c 0,0 0,-0.1 0,-0.1 0,0 -0.1,-0.1 -0.1,-0.1 0,0 0,0 0.1,-0.1 0,-0.1 0,-0.1 0,-0.1 0,0 0,-0.1 0,-0.1 -0.1,0 -0.1,0 -0.1,0 0,0 -0.1,-0.1 0,-0.1 0.1,0 0.1,-0.1 0,-0.1 -0.1,0 -0.1,-0.1 -0.1,-0.1 0,0 0,-0.1 -0.1,-0.1 0,0 -0.1,0.1 -0.1,0.1 0,0 0,0 -0.1,0.1 -0.1,0 0,0.1 0,0.1 0.1,0 0,0.1 0,0.1 0,0 -0.1,0 -0.1,0 -0.1,0 0,0.1 0,0.1 0,0 0,0 0,0.1 0,0.1 0.1,0.1 0.1,0.1 0,0 0,0.1 -0.1,0.1 0,0 0,0.1 0,0.1 h -0.1 l 0.1,0.1 v 0.3 l -0.1,0.1 c 0,0 -0.1,0 -0.1,0.1 0,0 0,0 0,0.1 0,0.1 0.1,0.1 0.1,0.1 l -0.1,0.1 h -0.1 v 0.1 h -0.2 c 0,0 0,0.1 0,0.2 h -2.4 c 0,-0.1 0,-0.2 0,-0.2 h -0.2 V 82 h -0.1 l -0.1,-0.1 c 0,0 0.1,-0.1 0.1,-0.1 0,-0.1 0,-0.1 0,-0.1 0,-0.1 -0.1,-0.1 -0.1,-0.1 l -0.1,-0.1 v -0.3 l 0.1,-0.1 h -0.1 c 0,0 0,-0.1 0,-0.1 0,0 -0.1,-0.1 -0.1,-0.1 0,0 0,0 0.1,-0.1 0,-0.1 0,-0.1 0,-0.1 0,0 0,-0.1 0,-0.1 -0.1,0 -0.1,0 -0.1,0 0,0 -0.1,-0.1 0,-0.1 0.1,0 0.1,-0.1 0,-0.1 -0.1,0 -0.1,-0.1 -0.1,-0.1 0,0 0,-0.1 -0.1,-0.1 0,0 -0.1,0.1 -0.1,0.1 0,0 0,0 -0.1,0.1 -0.1,0 0,0.1 0,0.1 0.1,0 0,0.1 0,0.1 0,0 -0.1,0 -0.1,0 -0.1,0 0,0.1 0,0.1 0,0 0,0 0,0.1 0,0.1 0.1,0.1 0.1,0.1 0,0 0,0.1 -0.1,0.1 0,0 0,0.1 0,0.1 h -0.1 l 0.1,0.1 v 0.3 l -0.1,0.1 c 0,0 -0.1,0 -0.1,0.1 0,0 0,0 0,0.1 0,0.1 0.1,0.1 0.1,0.1 l 1.1,0.1 h -0.1 v 0.1 h -0.2 c 0,0 0,0.1 0,0.2 h -2.4 c 0,-0.1 0,-0.2 0,-0.2 h -0.2 V 82 h -0.1 l -0.1,-0.1 c 0,0 0.1,-0.1 0.1,-0.1 0,-0.1 0,-0.1 0,-0.1 0,-0.1 -0.1,-0.1 -0.1,-0.1 l -0.1,-0.1 v -0.3 l 0.1,-0.1 h -0.1 c 0,0 0,-0.1 0,-0.1 0,0 -0.1,-0.1 -0.1,-0.1 0,0 0,0 0.1,-0.1 0,-0.1 0,-0.1 0,-0.1 0,0 0,-0.1 0,-0.1 -0.1,0 -0.1,0 -0.1,0 0,0 -0.1,-0.1 0,-0.1 0.1,0 0.1,-0.1 0,-0.1 -0.1,0 -0.1,-0.1 -0.1,-0.1 0,0 0,-0.1 -0.1,-0.1 0,0 -0.1,0.1 -0.1,0.1 0,0 0,0 -0.1,0.1 -0.1,0 0,0.1 0,0.1 0.1,0 0,0.1 0,0.1 0,0 -0.1,0 -0.1,0 -0.1,0 0,0.1 0,0.1 0,0 0,0 0,0.1 0,0.1 0.1,0.1 0.1,0.1 0,0 0,0.1 -0.1,0.1 0,0 0,0.1 0,0.1 h -0.1 l 0.1,0.1 v 0.3 l -0.1,0.1 c 0,0 -0.1,0 -0.1,0.1 0,0 0,0 0,0.1 0,0.1 0.1,0.1 0.1,0.1 L 1129,82 h -0.1 v 0.1 h -0.2 c 0,0 0,0.1 0,0.2 h -3 v -0.2 h -0.2 v -1.7 l 0.6,-1 -0.6,-0.2 v -0.5 h -0.3 v -0.2 h -0.1 v -0.1 l 0.3,-0.6 h -0.2 l -0.2,-0.1 v -0.4 l -0.1,-0.1 v -0.1 h -0.1 V 77 l 0.1,-0.2 h -0.3 v -0.1 c 0,0 0,0 0,-0.1 0,-0.1 -0.1,-0.1 -0.1,-0.1 v -0.1 l -0.1,-0.2 c 0,0 0.1,-0.1 0.1,-0.2 0,-0.1 0,-0.2 0,-0.2 v -0.1 l 0.1,-0.1 v -0.2 -0.1 l -0.1,0.1 v -0.1 c 0,0 0.1,-0.1 0.2,-0.1 0,-0.1 0.1,-0.1 0.1,-0.1 0,0 0,-0.2 -0.1,-0.2 -0.1,0 -0.1,-0.1 -0.1,-0.1 h -0.3 l -0.1,-0.1 v -0.3 h -0.1 c 0,-0.1 0,-0.2 0,-0.2 0,0 0,0 -0.2,0 -0.1,0 -0.2,-0.1 -0.2,-0.1 l 0.2,-0.3 0.1,-0.1 c 0,0 0,-0.2 -0.3,-0.3 v -0.1 l 0.1,-0.1 c 0,0 0,0 -0.1,-0.1 v 0 c 0,0 0,0 0,0 V 73 73 c 0,0 0,0 0,0 0,0 0,0 0,0 v 0 0 c 0,0 0,0 0,0 0,0 0,0 0,0 v 0 0 c 0,0 0,0 0,0 0,0 0,0 0,0 v 0 0.1 c 0,0 0,0 0,0 v 0 c 0,0 -0.1,0.1 -0.1,0.1 v 0 0.1 c -0.3,0 -0.3,0.3 -0.3,0.3 l 0.1,0.1 0.2,0.3 c 0,0 -0.1,0 -0.2,0.1 -0.1,0 -0.2,0 -0.2,0 0,0 0,0.1 0,0.2 h -0.1 v 0.3 l -0.1,0.1 h -0.3 c 0,0 0,0.1 -0.1,0.1 -0.1,0 -0.1,0.2 -0.1,0.2 0,0 0.1,0 0.1,0.1 0,0.1 0.2,0.1 0.2,0.1 v 0.1 l -0.1,-0.1 v 0.1 0.2 l 0.1,0.1 v 0.1 c 0,0 0,0.1 0,0.2 0,0.1 0.1,0.2 0.1,0.2 l -0.1,0.2 v 0.1 c 0,0 -0.1,0 -0.1,0.1 0,0.1 0,0.1 0,0.1 v 0.1 h -0.3 l 0.1,0.2 V 77 h -0.1 v 0.1 l -0.1,0.1 v 0.4 l -0.2,0.1 h -1.3 l -0.3,-0.5 -0.1,-0.1 V 77 l -0.3,-0.5 -0.2,-0.1 -0.3,-0.5 -0.2,-0.1 -0.4,-0.5 -0.4,-0.1 -0.2,-0.3 -0.5,-0.2 -0.1,-0.2 -0.6,-0.3 c 0,0 -0.5,-0.2 -0.6,-0.3 -0.1,0 -0.5,-0.1 -0.5,-0.1 l -0.2,-0.1 -0.4,-0.1 c 0,0 -0.3,-0.4 -1.1,-0.6 0,0 0,0 0,0 -0.1,0 -0.2,-0.1 -0.4,-0.1 -0.2,0 -0.6,-0.1 -0.9,0 -1.2,0.1 -1.7,0.7 -1.7,0.7 l -0.4,0.1 -0.2,0.1 c 0,0 -0.4,0.1 -0.5,0.1 -0.1,0 -0.6,0.3 -0.6,0.3 l -0.6,0.3 -0.1,0.2 -0.5,0.2 -0.2,0.3 -0.4,0.1 -0.4,0.5 -0.2,0.1 -0.3,0.5 -0.2,0.1 -0.3,0.5 v 0.1 l -0.1,0.1 -0.3,0.5 h -2.1 l -0.2,-0.1 v -0.4 l -0.1,-0.1 V 77 h -0.1 v -0.1 l 0.1,-0.2 h -0.3 v -0.1 c 0,0 0,0 0,-0.1 0,-0.1 -0.1,-0.1 -0.1,-0.1 v -0.1 l -0.1,-0.2 c 0,0 0.1,-0.1 0.1,-0.2 0,-0.1 0,-0.2 0,-0.2 v -0.1 l 0.1,-0.1 v -0.2 -0.1 l -0.1,0.1 v -0.1 c 0,0 0.1,-0.1 0.2,-0.1 0,-0.1 0.1,-0.1 0.1,-0.1 0,0 0,-0.2 -0.1,-0.2 -0.1,0 -0.1,-0.1 -0.1,-0.1 h -0.3 l -0.1,-0.1 v -0.3 h -0.1 c 0,-0.1 0,-0.2 0,-0.2 0,0 0,0 -0.2,0 -0.1,0 -0.2,-0.1 -0.2,-0.1 l 0.2,-0.3 0.1,-0.1 c 0,0 0,-0.2 -0.3,-0.3 v -0.1 l 0.1,-0.1 c 0,0 0,0 -0.1,-0.1 v 0 c 0,0 0,0 0,0 v -0.1 0 c 0,0 0,0 0,0 0,0 0,0 0,0 v 0 0 c 0,0 0,0 0,0 0,0 0,0 0,0 v 0 0 c 0,0 0,0 0,0 0,0 0,0 0,0 v 0 0.1 c 0,0 0,0 0,0 v 0 c 0,0 -0.1,0.1 -0.1,0.1 v 0 0.1 c -0.3,0 -0.3,0.3 -0.3,0.3 l 0.1,0.1 0.2,0.3 c 0,0 -0.1,0 -0.2,0.1 -0.1,0 -0.2,0 -0.2,0 0,0 0,0.1 0,0.2 h -0.1 v 0.3 l -0.1,0.1 h -0.3 c 0,0 0,0.1 -0.1,0.1 -0.1,0 -0.1,0.2 -0.1,0.2 0,0 0.1,0 0.1,0.1 0,0.1 0.2,0.1 0.2,0.1 v 0.1 l -0.1,-0.1 v 0.1 0.2 l 0.1,0.1 v 0.1 c 0,0 0,0.1 0,0.2 0,0.1 0.1,0.2 0.1,0.2 l -0.1,0.2 v 0.1 c 0,0 -0.1,0 -0.1,0.1 0,0.1 0,0.1 0,0.1 v 0.1 h -0.3 l 0.1,0.2 v 0.1 h -0.1 V 77 l -0.1,0.1 v 0.4 l -0.2,0.1 v 0 l 0.3,0.6 v 0.1 h -0.1 v 0.2 h -0.3 V 79 l -0.6,0.2 0.6,1 v 1.7 h -0.2 v 0.2 h -3 c 0,-0.1 0,-0.2 0,-0.2 h -0.2 V 82 h -0.1 l -0.1,-0.1 c 0,0 0.1,-0.1 0.1,-0.1 0,-0.1 0,-0.1 0,-0.1 0,-0.1 -0.1,-0.1 -0.1,-0.1 l -0.1,-0.1 v -0.3 l 0.1,-0.1 h -0.1 c 0,0 0,-0.1 0,-0.1 0,0 -0.1,-0.1 -0.1,-0.1 0,0 0,0 0.1,-0.1 0,-0.1 0,-0.1 0,-0.1 0,0 0,-0.1 0,-0.1 -0.1,0 -0.1,0 -0.1,0 0,0 -0.1,-0.1 0,-0.1 0.1,0 0.1,-0.1 0,-0.1 -0.1,0 -0.1,-0.1 -0.1,-0.1 0,0 0,-0.1 -0.1,-0.1 0,0 -0.1,0.1 -0.1,0.1 0,0 0,0 -0.1,0.1 -0.1,0 0,0.1 0,0.1 0.1,0 0,0.1 0,0.1 0,0 -0.1,0 -0.1,0 -0.1,0 0,0.1 0,0.1 0,0 0,0 0,0.1 0,0.1 0.1,0.1 0.1,0.1 0,0 0,0.1 -0.1,0.1 0,0 0,0.1 0,0.1 h -0.1 l 0.1,0.1 v 0.3 l -0.1,0.1 c 0,0 -0.1,0 -0.1,0.1 0,0 0,0 0,0.1 0,0.1 0.1,0.1 0.1,0.1 l -0.1,0.1 h -0.1 v 0.1 h -0.2 c 0,0 0,0.1 0,0.2 h -2.4 c 0,-0.1 0,-0.2 0,-0.2 h -0.2 V 82 h -0.1 l -0.1,-0.1 c 0,0 0.1,-0.1 0.1,-0.1 0,-0.1 0,-0.1 0,-0.1 0,-0.1 -0.1,-0.1 -0.1,-0.1 l -0.1,-0.1 v -0.3 l 0.1,-0.1 h -0.1 c 0,0 0,-0.1 0,-0.1 0,0 -0.1,-0.1 -0.1,-0.1 0,0 0,0 0.1,-0.1 0,-0.1 0,-0.1 0,-0.1 0,0 0,-0.1 0,-0.1 -0.1,0 -0.1,0 -0.1,0 0,0 -0.1,-0.1 0,-0.1 0.1,0 0.1,-0.1 0,-0.1 -0.1,0 -0.1,-0.1 -0.1,-0.1 0,0 0,-0.1 -0.1,-0.1 0,0 -0.1,0.1 -0.1,0.1 0,0 0,0 -0.1,0.1 -0.1,0 0,0.1 0,0.1 0.1,0 0,0.1 0,0.1 0,0 -0.1,0 -0.1,0 -0.1,0 0,0.1 0,0.1 0,0 0,0 0,0.1 0,0.1 0.1,0.1 0.1,0.1 0,0 0,0.1 -0.1,0.1 0,0 0,0.1 0,0.1 h -0.1 l 0.1,0.1 v 0.3 l -0.1,0.1 c 0,0 -0.1,0 -0.1,0.1 0,0 0,0 0,0.1 0,0.1 0.1,0.1 0.1,0.1 l 2.6,0.1 h -0.1 v 0.1 h -0.2 c 0,0 0,0.1 0,0.2 h -2.4 c 0,-0.1 0,-0.2 0,-0.2 h -0.2 V 82 h -0.1 l -0.1,-0.1 c 0,0 0.1,-0.1 0.1,-0.1 0,-0.1 0,-0.1 0,-0.1 0,-0.1 -0.1,-0.1 -0.1,-0.1 l -0.1,-0.1 v -0.3 l 0.1,-0.1 h -0.1 c 0,0 0,-0.1 0,-0.1 0,0 -0.1,-0.1 -0.1,-0.1 0,0 0,0 0.1,-0.1 0,-0.1 0,-0.1 0,-0.1 0,0 0,-0.1 0,-0.1 -0.1,0 -0.1,0 -0.1,0 0,0 -0.1,-0.1 0,-0.1 0.1,0 0.1,-0.1 0,-0.1 -0.1,0 -0.1,-0.1 -0.1,-0.1 0,0 0,-0.1 -0.1,-0.1 0,0 -0.1,0.1 -0.1,0.1 0,0 0,0 -0.1,0.1 -0.1,0 0,0.1 0,0.1 0.1,0 0,0.1 0,0.1 0,0 -0.1,0 -0.1,0 -0.1,0 0,0.1 0,0.1 0,0 0,0 0,0.1 0,0.1 0.1,0.1 0.1,0.1 0,0 0,0.1 -0.1,0.1 0,0 0,0.1 0,0.1 h -0.1 l 0.1,0.1 v 0.3 l -0.1,0.1 c 0,0 -0.1,0 -0.1,0.1 0,0 0,0 0,0.1 0,0.1 0.1,0.1 0.1,0.1 L 1091,82 h -0.1 v 0.1 h -0.2 c 0,0 0,0.1 0,0.2 h -2.4 c 0,-0.1 0,-0.2 0,-0.2 h -0.2 V 82 h -0.1 l -0.1,-0.1 c 0,0 0.1,-0.1 0.1,-0.1 0,-0.1 0,-0.1 0,-0.1 0,-0.1 -0.1,-0.1 -0.1,-0.1 l -0.1,-0.1 v -0.3 l 0.1,-0.1 h -0.1 c 0,0 0,-0.1 0,-0.1 0,0 -0.1,-0.1 -0.1,-0.1 0,0 0,0 0.1,-0.1 0,-0.1 0,-0.1 0,-0.1 0,0 0,-0.1 0,-0.1 -0.1,0 -0.1,0 -0.1,0 0,0 -0.1,-0.1 0,-0.1 0.1,0 0.1,-0.1 0,-0.1 -0.1,0 -0.1,-0.1 -0.1,-0.1 0,0 0,-0.1 -0.1,-0.1 0,0 -0.1,0.1 -0.1,0.1 0,0 0,0 -0.1,0.1 -0.1,0 0,0.1 0,0.1 0.1,0 0,0.1 0,0.1 0,0 -0.1,0 -0.1,0 -0.1,0 0,0.1 0,0.1 0,0 0,0 0,0.1 0,0.1 0.1,0.1 0.1,0.1 0,0 0,0.1 -0.1,0.1 0,0 0,0.1 0,0.1 h -0.1 l 0.1,0.1 v 0.3 l -0.1,0.1 c 0,0 -0.1,0 -0.1,0.1 0,0 0,0 0,0.1 0,0.1 0.1,0.1 0.1,0.1 L 1087,82 h -0.1 v 0.1 h -0.2 c 0,0 0,0.1 0,0.2 h -2.3 l 0.3,0.3 V 83 h -0.8 v -0.2 l -0.3,-0.3 h -0.1 v -1.3 l 0.2,-0.2 v -0.1 l 0.1,-0.1 0.1,-0.2 h -0.4 v -0.3 l -0.4,-0.3 v -0.2 h -0.2 v -3.2 l 0.1,-0.3 h -0.1 l 0.7,-0.6 v -0.2 l 0.3,-0.2 h -1 V 75 l -0.3,-0.2 v -0.5 h -1.1 c 0,-0.2 -0.1,-0.3 -0.2,-0.3 -0.1,0 -0.2,0.1 -0.2,0.3 h -1 v -6.6 c 0,-0.1 0,-0.2 -0.1,-0.2 v 0 c 0,0 -0.1,0.1 -0.1,0.2 v 6.6 h -0.5 c 0,-0.2 -0.1,-0.3 -0.2,-0.3 -0.1,0 -0.2,0.1 -0.2,0.3 h -1.6 c 0,-0.2 -0.1,-0.3 -0.2,-0.3 -0.1,0 -0.2,0.1 -0.2,0.3 h -1.6 c 0,-0.2 -0.1,-0.3 -0.2,-0.3 -0.1,0 -0.2,0.1 -0.2,0.3 h -1 V 75 l -0.3,0.2 v 0.3 h -1 l 0.3,0.2 v 0.2 l 0.7,0.6 h -0.1 l 0.1,0.3 V 80 h -0.2 v 0.2 l -0.4,0.3 v 0.3 h -0.4 l 0.1,0.2 0.1,0.1 v 0.1 l 0.2,0.2 v 1.3 h -0.1 l -0.3,0.3 v 0.2 0 l 0.1,-0.5 h -0.1 c 0,0 -0.2,-0.1 -0.2,-0.2 0,0 -0.1,0 -0.1,-0.1 0,0 0,-0.2 0,-0.3 0,-0.2 -0.1,-0.3 -0.1,-0.4 0,-0.1 -0.1,-0.3 -0.1,-0.3 -0.1,0 -0.2,-0.1 -0.2,-0.1 0,0 0,-0.1 0,-0.1 0,0 0,-0.1 -0.1,-0.1 -0.2,0 -0.2,0 -0.2,0.1 0,0.1 0,0.2 0,0.2 0,0 0.1,0.1 0.1,0.1 h 0.1 c 0,0 0,0 0,0.1 0,0.1 0,0.2 -0.1,0.2 0,0 -0.1,0 -0.1,0 0,0 0,0.1 0,0.1 0,0 0.1,0.1 0,0.2 -0.1,0.1 -0.1,0.2 -0.1,0.2 0,0.1 0.1,0.1 0.1,0.1 0,0 0,0 -0.1,0.1 0,0.1 0,0.2 0,0.3 0,0.1 0.1,0.2 0.1,0.2 0,0 0.1,0.1 0,0.1 0,0 0,0.1 -0.1,0.1 0,0 -0.1,0 -0.1,0 0,0 0,0 0,0 h -0.1 l 0.4,0.3 v 0.2 h -0.4 l 0.3,0.3 h -1.3 l 1.5,1.1 v 0.6 h -0.3 l 0.2,0.2 V 86 l 0.1,0.2 0.1,0.4 v 0.7 h -0.1 l 0.1,0.1 v 7.9 l -0.6,0.5 v 0.8 h -0.3 v 0.3 h 0.2 l 0.1,0.2 h -0.1 v 0.3 h 0.1 v 0.1 h -0.1 v 0.4 h 0.1 V 98 h -0.2 v 0.3 h 0.2 v 0.1 h -0.1 v 0.3 h 0.1 v 0.1 h -0.1 V 99 h 0.1 v 0.1 h -0.1 v 0.3 h 0.1 v 0.1 c 0,0 -0.1,0.1 -0.2,0.1 -0.1,0 -0.2,0.2 -0.2,0.2 l -3.7,0.3 v 0.4 h 92.4 v -0.4 z"
   id="path28"
   inkscape:connector-curvature="0" />
	<path
   d="m 957.1,99.3 c 0.2,0.1 7.5,0 7.5,0 V 98 l 0.6,-0.6 v -3.8 l -0.5,-0.7 v -0.4 h 0.5 v -0.6 l 1.5,-0.4 h 2.8 c 0,0 0.6,-0.6 1.5,-0.6 0.9,-0.1 2.5,0 2.5,0 v -0.8 l 1,-1.4 v -6.5 l -0.4,-0.4 v -1.4 l -0.6,-1.1 c 0,0 0.9,-0.4 1.1,-0.6 0.2,-0.3 3.9,-0.8 4.6,-0.8 0.6,0 1.1,0 1.1,0 v -1.3 l 0.5,-0.6 c -0.3,-0.1 -0.5,-0.3 -0.5,-0.6 v -2 c 0,-0.3 0.3,-0.6 0.6,-0.6 h 0.1 c 0.1,0 0.1,0 0.2,-0.1 v 0 -5 L 981,61 c -0.1,-0.1 -0.1,-0.2 -0.1,-0.3 V 60 c 0,-0.1 0.1,-0.3 0.1,-0.4 l 0.1,-6.3 c -0.2,-0.1 -0.3,-0.3 -0.3,-0.5 v -0.7 c 0,-0.2 0.1,-0.4 0.3,-0.5 v 0 l 0.4,-6.1 -0.2,-1.2 0.2,-0.6 -0.2,-0.9 v -3.6 l 1.1,-0.5 c 0,0 0.3,-0.8 1.2,-0.8 0.9,0 1.2,0.8 1.2,0.8 l 1.1,0.5 v 3.6 l -0.2,0.9 0.2,0.6 -0.2,1.2 0.4,6.1 v 0 c 0.2,0.1 0.3,0.3 0.3,0.5 v 0.7 c 0,0.2 -0.1,0.4 -0.3,0.5 l 0.1,6.3 c 0.1,0.1 0.1,0.2 0.1,0.4 v 0.7 c 0,0.1 0,0.3 -0.1,0.3 l 0.1,6.9 v 5 0.1 h 0.3 c 0.3,0 0.6,0.3 0.6,0.6 v 2 c 0,0.3 -0.2,0.5 -0.5,0.6 l 0.4,0.6 V 78 c 0,0 0.4,0 1.1,0 0.6,0 4.3,0.5 4.6,0.8 0.2,0.3 1.1,0.6 1.1,0.6 l -0.6,1.1 v 1.4 l -0.4,0.4 v 6.5 l 1,1.4 V 91 c 0,0 1.6,-0.1 2.5,0 0.9,0.1 1.5,0.6 1.5,0.6 h 2.8 l 1.5,0.4 v 0.6 h 0.5 V 93 l -0.5,0.7 v 3.8 l 0.6,0.6 v 1.3 c 0,0 7.3,0.2 7.5,0 0.2,-0.1 2.4,1.3 2.4,1.3 h -58.1 c 0,-0.1 2.3,-1.5 2.5,-1.4 z"
   id="path30"
   inkscape:connector-curvature="0" />
	<path
   d="m 983.8,38.3 0.6,-0.5 v -0.3 c 0,0 0,-0.2 0.2,0 0.2,0.2 0.5,0.4 0.5,0.4 l 0.8,-0.4 0.4,-0.2 c 0,0 0,-0.5 -0.4,-0.8 -0.3,-0.3 -0.8,-0.7 -1.1,-0.9 -0.3,-0.2 -0.6,-0.7 -0.6,-0.7 h 0.3 v -0.6 l -0.8,-0.6 c 0,0 1.4,-1 1.3,-1.2 -0.1,-0.2 0.2,-0.6 0.2,-0.6 0,0 0.6,-0.8 0.7,-0.9 0.1,-0.1 0.6,-0.3 0.6,-0.3 l 1.6,-1.2 c 0,0 0.4,-0.5 -0.7,-0.3 -1.1,0.2 -2.2,0.6 -2.4,0.7 -0.2,0.1 -1.1,0.3 -1.1,0.7 -0.1,0.3 -0.7,1.2 -0.6,1.1 0.1,0 0,-2.2 0,-2.2 0,0 0.4,-0.7 0.2,-0.9 -0.2,-0.3 -0.5,-0.5 -0.5,-0.5 l -0.1,-0.8 -0.4,-0.4 v 1.7 c 0,0 -0.3,0.6 -0.4,0.8 -0.1,0.2 0,0.8 0,0.8 v 0.4 c 0,0 -0.2,0 -0.3,0.3 -0.1,0.2 -0.1,0.3 -0.8,-0.1 -0.7,-0.4 -1,-0.7 -1,-0.7 v -0.7 l -0.6,-0.3 -0.4,0.2 0.3,0.6 c 0,0 0.7,0.8 1.1,1.1 0.4,0.3 0.5,0.5 0.7,0.6 0.2,0.1 0.5,0.4 0.5,0.5 0,0.1 -0.1,0 0.1,0.6 0.2,0.6 0,0.8 0,1.3 0,0.4 -0.1,1 0,1.1 0.1,0.1 0.3,0.4 0.5,0.8 0.2,0.4 0.2,0.4 0.5,0.8 0.2,0.3 0.3,1 0.3,1.4 0.1,0.1 0.8,0.2 0.8,0.2 z"
   id="path32"
   inkscape:connector-curvature="0" />
	<polygon
   class="st1"
   points="988.5,87.7 988.4,87.7 988.4,88.4 986.4,88.4 986.4,87.7 986.2,87.7 986.2,82 986.4,81.9 986.4,81.4 988.4,81.4 988.4,81.9 988.5,82 "
   id="polygon34"
   style="fill:#ffffff" />
	<polygon
   class="st1"
   points="991.9,87.7 991.8,87.7 991.8,88.4 989.7,88.4 989.7,87.7 989.6,87.7 989.6,82 989.7,81.9 989.7,81.4 991.8,81.4 991.8,81.9 991.9,82 "
   id="polygon36"
   style="fill:#ffffff" />
	<polygon
   class="st1"
   points="985.1,87.7 985,87.7 985,88.4 983,88.4 983,87.7 982.8,87.7 982.8,82 983,81.9 983,81.4 985,81.4 985,81.9 985.1,82 "
   id="polygon38"
   style="fill:#ffffff" />
	<polygon
   class="st1"
   points="981.7,87.7 981.6,87.7 981.6,88.4 979.6,88.4 979.6,87.7 979.4,87.7 979.4,82 979.6,81.9 979.6,81.4 981.6,81.4 981.6,81.9 981.7,82 "
   id="polygon40"
   style="fill:#ffffff" />
	<polygon
   class="st1"
   points="988.3,87.7 988.1,87.7 988.1,88.4 986.1,88.4 986.1,87.7 986,87.7 986,82 986.1,81.9 986.1,81.4 988.1,81.4 988.1,81.9 988.3,82 "
   id="polygon42"
   style="fill:#ffffff" />
	<polygon
   class="st1"
   points="978.1,87.7 978,87.7 978,88.4 975.9,88.4 975.9,87.7 975.8,87.7 975.8,82 975.9,81.9 975.9,81.4 978,81.4 978,81.9 978.1,82 "
   id="polygon44"
   style="fill:#ffffff" />
	<polygon
   points="1160.5,103.6 1160.5,100.8 895,100.8 895,103.6 "
   id="polygon46" />
	<polygon
   points="957.3,105.7 957.3,105.9 "
   id="polygon48" />
	<path
   d="m 967.3,99.2 h -1.1 v -8.5 c 0,0 0.8,-0.5 0.7,-0.5 -0.1,0 -1.2,-0.6 -1.2,-0.6 v -6.2 l 0.6,-0.9 h -0.9 v -1.2 l 2.3,-1.6 h -2.3 V 79 l -1.7,-0.4 v -0.8 l 0.8,-0.8 v -0.6 l -0.8,-0.6 -0.5,-0.9 v -3.4 l 0.6,-0.8 h -0.6 v -0.8 l 0.8,-0.6 -0.8,-1 H 962 v -0.8 c 0,0 -0.5,-4.1 -4.1,-4.3 0,-0.1 0,-0.2 0,-0.4 0,-0.1 0,-0.1 0,-0.2 0.5,0 0.8,-0.3 0.8,-0.6 0,-0.3 -0.4,-0.6 -0.9,-0.6 0,-0.4 -0.1,-0.6 -0.1,-0.6 0,0 -0.1,0.2 -0.1,0.6 -0.5,0 -0.8,0.3 -0.8,0.6 0,0.3 0.4,0.5 0.8,0.6 0,0.1 0,0.1 0,0.2 0,0.1 0,0.2 0,0.4 -3.6,0.1 -4.1,4.3 -4.1,4.3 v 0.8 h -1.3 l -0.8,1 0.8,0.6 v 0.8 h -0.6 l 0.6,0.8 v 3.4 l -0.5,0.9 -0.8,0.6 V 77 l 0.8,0.8 v 0.8 L 950,79 v 0.5 c -1,0.1 -3,-0.1 -3,-0.1 l 0.4,-0.4 h -2.2 l 0.4,-0.8 h -1.5 v -1.8 l 0.6,-0.8 h -1 v -1.5 c 0,0 -0.7,-0.9 -0.9,-0.8 -0.2,0.1 -1.1,0 -1.1,0 0,0 0,-8 -8,-9.2 v -0.6 c 0,0 0.8,-0.8 0.5,-1.1 -0.3,-0.3 -0.6,-1.2 -2.1,-1.2 -1.5,0 -1.8,0.9 -2.1,1.2 -0.3,0.3 0.5,1.1 0.5,1.1 V 64 c -8.5,0.8 -8.5,9.2 -8.5,9.2 0,0 -0.8,0.1 -1.1,0 C 920.7,73.1 920,74 920,74 v 1.5 h -1 l 0.6,0.8 v 1.8 h -1.5 l 0.4,0.8 h -2.2 l 0.4,0.4 c 0,0 -0.8,0.1 -1.7,0.1 v -0.5 l -1.7,-0.4 v -0.8 l 0.8,-0.8 v -0.6 l -0.8,-0.6 -0.5,-0.9 v -3.4 l 0.6,-0.8 h -0.6 v -0.8 l 0.8,-0.6 -0.8,-1 h -1.3 v -0.8 c 0,0 -0.5,-4.1 -4.1,-4.3 0,-0.1 0,-0.2 0,-0.4 0,-0.1 0,-0.1 0,-0.2 0.5,0 0.8,-0.3 0.8,-0.6 0,-0.3 -0.4,-0.6 -0.9,-0.6 0,-0.4 -0.1,-0.6 -0.1,-0.6 0,0 -0.1,0.2 -0.1,0.6 -0.5,0 -0.8,0.3 -0.8,0.6 0,0.3 0.4,0.5 0.8,0.6 0,0.1 0,0.1 0,0.2 0,0.1 0,0.2 0,0.4 -3.6,0.1 -4.1,4.3 -4.1,4.3 v 0.8 h -1.3 l -0.8,1 0.8,0.6 v 0.8 h -0.6 l 0.6,0.8 v 3.4 l -0.5,0.9 -0.8,0.6 V 77 l 0.8,0.8 v 0.8 l -1.7,0.4 v 0.7 h -2.3 l 2.3,1.6 v 1.2 h -0.9 l 0.6,0.9 v 6.2 c 0,0 -1.1,0.6 -1.2,0.6 -0.1,0 0.7,0.5 0.7,0.5 v 8.5 h -1.1 v 1.1 l -0.4,0.8 h 69.9 l -0.4,-0.8 v -1.1 z"
   id="path50"
   inkscape:connector-curvature="0" />
	<path
   class="st0"
   d="M 1187.2,113.4 1176,103.1 H 865.1 l 11.2,10.3 -11.3,10.4 h 96 c -31.6,21.8 -50.8,57.8 -50.8,96.7 0,59.6 44.6,109.8 103.7,116.6 l 0.8,-6.7 c 0,0 0,0 0,0 l 1.1,-10.5 0.4,-3.4 c -48.6,-5.7 -85.2,-47 -85.2,-96 0,-53.3 43.4,-96.7 96.7,-96.7 53.3,0 96.7,43.4 96.7,96.7 0,50.3 -39.2,92.7 -89.3,96.4 l -1.2,0.1 -11.2,10.3 11.4,10.4 1.4,-0.1 c 61.5,-4 109.6,-55.5 109.6,-117.2 0,-38.9 -19.2,-74.9 -50.8,-96.7 h 81.6 z"
   id="path52"
   inkscape:connector-curvature="0"
   style="fill:#009fe3" />
	<g
   id="g68">
		<path
   d="m 1248.4,294.4 v -12.3 l 24.8,-0.1 v 38.6 c -3.8,5.4 -7.7,9.4 -11.8,12.2 -4.1,2.8 -8.2,4.1 -12.5,4.1 -5.7,0 -10.8,-2.1 -15.3,-6.2 -4.5,-4.2 -8,-10.2 -10.7,-18.2 -2.6,-8 -3.9,-17.6 -3.9,-28.8 0,-11.3 1.3,-21.2 4,-29.6 2.6,-8.4 6.1,-14.6 10.3,-18.6 4.3,-4 9.3,-6 15.1,-6 4.3,0 8,1.2 11.3,3.5 3.3,2.3 5.9,5.6 8,9.9 2.1,4.3 3.6,10.1 4.7,17.5 l -7,3.4 c -0.9,-5.9 -2.1,-10.2 -3.6,-13.1 -1.4,-2.9 -3.3,-5.2 -5.7,-6.8 -2.3,-1.7 -5,-2.5 -7.9,-2.5 -4.3,0 -7.9,1.5 -11,4.5 -3.1,3 -5.5,7.7 -7.4,14 -1.9,6.3 -2.8,14.1 -2.8,23.2 0,13.9 2,24.3 6,31.3 4,6.9 9.2,10.4 15.6,10.4 3.1,0 6.2,-1.1 9.4,-3.2 3.2,-2.1 5.7,-4.7 7.6,-7.6 v -19.4 h -17.2 z"
   id="path54"
   inkscape:connector-curvature="0" />
		<path
   d="M 1284.7,335.1 V 231.2 h 42.4 v 12.3 h -34.6 v 31.8 h 32.4 v 12.3 h -32.4 V 323 h 36 v 12.3 h -43.8 z"
   id="path56"
   inkscape:connector-curvature="0" />
		<path
   d="M 1339.2,335.1 V 231.2 h 26 c 5.4,0 9.4,1 12,2.9 2.6,1.9 4.7,5.2 6.4,9.7 1.7,4.5 2.5,9.7 2.5,15.7 0,7.8 -1.4,14.2 -4.2,19.1 -2.8,4.9 -6.9,8 -12.3,9.3 2.2,1.9 3.8,3.8 5,5.8 2.3,4 4.3,8.4 6.1,13.3 l 10.2,28.3 h -9.8 l -7.8,-21.6 c -3,-8.5 -5.3,-14.1 -6.9,-17.1 -1.5,-2.9 -3,-4.9 -4.5,-5.9 -1.4,-1 -3.5,-1.5 -6.1,-1.5 h -9 v 46.1 h -7.6 z m 7.7,-58 h 16.7 c 3.6,0 6.4,-0.6 8.3,-1.9 1.9,-1.3 3.4,-3.3 4.5,-6 1.1,-2.7 1.7,-5.9 1.7,-9.6 0,-5.2 -1.1,-9.4 -3.2,-12.4 -2.1,-3 -5.3,-4.5 -9.4,-4.5 H 1347 v 34.4 z"
   id="path58"
   inkscape:connector-curvature="0" />
		<path
   d="M 1398.1,335.1 V 231.2 h 11.7 l 13.9,73.6 2.8,15.4 c 0.7,-3.8 1.7,-9.4 3.1,-16.7 l 14.1,-72.3 h 10.4 v 103.9 h -7.5 v -86.9 l -17.1,86.9 h -7 l -17,-88.4 v 88.4 z"
   id="path60"
   inkscape:connector-curvature="0" />
		<path
   d="m 1460.2,335.1 22.6,-103.9 h 8.3 l 24,103.9 h -8.9 l -6.8,-31.5 h -24.7 l -6.4,31.5 z m 16.8,-42.7 h 20 l -6.1,-28.8 c -1.9,-8.8 -3.3,-16 -4.1,-21.5 -0.8,6.7 -1.8,13.3 -3.2,19.8 z"
   id="path62"
   inkscape:connector-curvature="0" />
		<path
   d="M 1521,335.1 V 231.2 h 8 l 30.8,81.8 v -81.8 h 7.4 v 103.9 h -8 l -30.8,-81.8 v 81.8 z"
   id="path64"
   inkscape:connector-curvature="0" />
		<path
   d="m 1596.9,335.1 v -44 l -22.6,-59.9 h 9.5 l 11.5,31.4 c 2.3,6.2 4.3,12.1 6,17.6 1.7,-5.4 3.9,-11.6 6.4,-18.4 l 11.4,-30.6 h 9 l -23.4,59.9 v 44 z"
   id="path66"
   inkscape:connector-curvature="0" />
	</g>
</g>








<g
   id="g1073"
   transform="translate(0,3)"><rect
     id="rect72"
     height="220.39999"
     width="221"
     class="st2"
     y="5"
     x="14.4"
     style="fill:#f9b03e" /><g
     id="g178">
	<polygon
   id="polygon74"
   points="725.9,252.2 730.4,252.2 747.1,277.1 747.1,252.2 750.9,252.2 750.9,284 746.8,284 730,259.1 730,284 725.9,284 "
   class="st3"
   style="fill:#214593" />
	<rect
   id="rect76"
   height="31.5"
   width="4.0999999"
   class="st3"
   y="252.2"
   x="15.7"
   style="fill:#214593" />
	<polygon
   id="polygon78"
   points="31.4,252.2 35.8,252.2 52.2,277.1 52.2,252.2 56.3,252.2 56.3,284 52.2,284 35.5,259.1 35.5,284 31.4,284 "
   class="st3"
   style="fill:#214593" />
	<polygon
   id="polygon80"
   points="80,284 75.9,284 75.9,255.9 65.5,255.9 65.5,252.2 90.4,252.2 90.4,255.9 80,255.9 "
   class="st3"
   style="fill:#214593" />
	<polygon
   id="polygon82"
   points="122.2,255.9 103.3,255.9 103.3,265.7 121,265.7 121,269.5 103.3,269.5 103.3,280.2 122.9,280.2 122.9,284 99.2,284 99.2,252.2 122.2,252.2 "
   class="st3"
   style="fill:#214593" />
	<g
   id="g86">
		<path
   id="path84"
   d="m 137.4,266.3 h 8.8 c 1.9,0 3.5,-0.3 4.4,-0.6 0.9,-0.3 1.9,-0.9 2.5,-1.9 0.6,-0.9 0.9,-1.9 0.9,-2.8 0,-1.6 -0.6,-2.8 -1.6,-3.8 -0.9,-0.9 -2.8,-1.6 -5,-1.6 h -10.1 v 10.7 z m -4.5,17.7 v -31.5 h 13.9 c 2.8,0 5,0.3 6.3,0.9 1.6,0.6 2.5,1.6 3.5,3.2 0.9,1.6 1.3,3.2 1.3,4.7 0,2.2 -0.6,4.1 -2.2,5.7 -1.6,1.6 -3.8,2.5 -6.6,2.8 0.9,0.6 1.9,0.9 2.5,1.6 1.3,1.3 2.5,2.5 3.5,4.1 l 5.4,8.5 H 155 l -4.1,-6.6 c -1.3,-1.9 -2.2,-3.5 -3.2,-4.4 -0.6,-0.9 -1.6,-1.6 -2.2,-2.2 -0.6,-0.3 -1.3,-0.6 -1.9,-0.9 -0.3,0 -1.3,0 -2.2,0 h -4.7 V 284 Z"
   class="st3"
   inkscape:connector-curvature="0"
   style="fill:#214593" />
	</g>
	<polygon
   id="polygon88"
   points="169.2,252.2 173.6,252.2 190,277.1 190,252.2 194.1,252.2 194.1,284 189.7,284 173.3,259.1 173.3,284 169.2,284 "
   class="st3"
   style="fill:#214593" />
	<g
   id="g92">
		<path
   id="path90"
   d="m 211.1,271.1 h 10.7 l -3.2,-8.8 c -0.9,-2.5 -1.9,-4.7 -2.2,-6.6 -0.3,1.9 -0.9,4.1 -1.6,6 z M 202,284 214.3,252.5 h 4.4 l 12.9,31.5 h -4.7 l -3.8,-9.5 h -13.2 l -3.5,9.5 z"
   class="st3"
   inkscape:connector-curvature="0"
   style="fill:#214593" />
	</g>
	<polygon
   id="polygon94"
   points="248.3,284 243.9,284 243.9,255.9 233.5,255.9 233.5,252.2 258.7,252.2 258.7,255.9 248.3,255.9 "
   class="st3"
   style="fill:#214593" />
	<rect
   id="rect96"
   height="31.5"
   width="4.0999999"
   class="st3"
   y="252.2"
   x="268.20001"
   style="fill:#214593" />
	<g
   id="g100">
		<path
   id="path98"
   d="m 287.4,268.6 c 0,3.8 0.9,6.9 3.2,9.1 1.9,2.2 4.7,3.2 7.6,3.2 3.2,0 5.7,-0.9 7.9,-3.5 1.9,-2.2 3.2,-5.4 3.2,-9.5 0,-2.5 -0.3,-4.7 -1.3,-6.6 -0.9,-1.9 -2.2,-3.5 -3.8,-4.4 -1.6,-0.9 -3.5,-1.6 -5.7,-1.6 -2.8,0 -5.7,0.9 -7.6,3.2 -2.5,1.9 -3.5,5.3 -3.5,10.1 m -4.4,0 c 0,-5.4 1.3,-9.5 4.1,-12.3 2.8,-2.8 6.3,-4.4 11,-4.4 2.8,0 5.7,0.6 7.9,2.2 2.2,1.3 4.1,3.5 5.4,6 1.3,2.5 1.9,5.4 1.9,8.5 0,3.1 -0.6,6 -1.9,8.5 -1.3,2.5 -3.2,4.4 -5.4,5.7 -2.2,1.3 -5,1.9 -7.6,1.9 -2.8,0 -5.7,-0.6 -7.9,-2.2 -2.2,-1.6 -4.1,-3.5 -5.4,-6 -1.5,-2.6 -2.1,-5.1 -2.1,-7.9"
   class="st3"
   inkscape:connector-curvature="0"
   style="fill:#214593" />
	</g>
	<polygon
   id="polygon102"
   points="323,252.2 327.1,252.2 343.9,277.1 343.9,252.2 348,252.2 348,284 343.5,284 326.8,259.1 326.8,284 323,284 "
   class="st3"
   style="fill:#214593" />
	<g
   id="g106">
		<path
   id="path104"
   d="m 365,271.1 h 10.7 l -3.2,-8.8 c -0.9,-2.5 -1.9,-4.7 -2.2,-6.6 -0.3,1.9 -0.9,4.1 -1.6,6 z m -9.2,12.9 12,-31.5 h 4.4 l 12.9,31.5 h -4.7 l -3.8,-9.5 h -13.2 l -3.5,9.5 z"
   class="st3"
   inkscape:connector-curvature="0"
   style="fill:#214593" />
	</g>
	<polygon
   id="polygon108"
   points="397.1,280.2 412.6,280.2 412.6,284 393,284 393,252.2 397.1,252.2 "
   class="st3"
   style="fill:#214593" />
	<polygon
   id="polygon110"
   points="437.2,252.2 458.6,252.2 458.6,255.9 441.6,255.9 441.6,265.7 456.4,265.7 456.4,269.5 441.6,269.5 441.6,284 437.2,284 "
   class="st3"
   style="fill:#214593" />
	<polygon
   id="polygon112"
   points="491.4,255.9 472.8,255.9 472.8,265.7 490.1,265.7 490.1,269.5 472.8,269.5 472.8,280.2 492,280.2 492,284 468.4,284 468.4,252.2 491.4,252.2 "
   class="st3"
   style="fill:#214593" />
	<g
   id="g116">
		<path
   id="path114"
   d="m 506.5,280.2 h 6.6 c 2.2,0 3.8,-0.3 5,-0.6 1.3,-0.3 2.2,-0.9 2.8,-1.6 0.9,-0.9 1.9,-2.2 2.2,-4.1 0.6,-1.6 0.9,-3.8 0.9,-6 0,-3.2 -0.6,-6 -1.6,-7.6 -0.9,-1.9 -2.5,-2.8 -4.1,-3.5 -1.3,-0.3 -2.8,-0.6 -5.4,-0.6 h -6.6 v 24 z m -4.4,3.8 v -31.5 h 11 c 2.5,0 4.4,0 5.7,0.3 1.9,0.3 3.5,1.3 4.7,2.2 1.6,1.3 2.8,3.2 3.8,5.4 0.9,2.2 1.3,4.7 1.3,7.6 0,2.5 -0.3,4.4 -0.9,6.3 -0.6,1.9 -1.3,3.5 -2.2,4.7 -0.9,1.3 -1.9,2.2 -2.8,2.8 -0.9,0.6 -2.2,1.3 -3.8,1.6 -1.6,0.3 -3.2,0.6 -5,0.6 -0.1,0 -11.8,0 -11.8,0 z"
   class="st3"
   inkscape:connector-curvature="0"
   style="fill:#214593" />
	</g>
	<polygon
   id="polygon118"
   points="561.4,255.9 542.8,255.9 542.8,265.7 560.1,265.7 560.1,269.5 542.8,269.5 542.8,280.2 562,280.2 562,284 538.7,284 538.7,252.2 561.4,252.2 "
   class="st3"
   style="fill:#214593" />
	<g
   id="g124">
		<path
   id="path120"
   d="m 576.5,266.3 h 9.1 c 1.9,0 3.5,-0.3 4.4,-0.6 0.9,-0.3 1.9,-0.9 2.5,-1.9 0.6,-1 0.9,-1.9 0.9,-2.8 0,-1.6 -0.6,-2.8 -1.6,-3.8 -0.9,-0.9 -2.8,-1.6 -5,-1.6 h -10.1 v 10.7 z m -4.1,17.7 v -31.5 h 13.9 c 2.8,0 5,0.3 6.3,0.9 1.6,0.6 2.5,1.6 3.5,3.2 0.9,1.6 1.3,3.2 1.3,4.7 0,2.2 -0.6,4.1 -2.2,5.7 -1.6,1.6 -3.8,2.5 -6.6,2.8 1.3,0.6 1.9,0.9 2.5,1.6 1.3,1.3 2.5,2.5 3.5,4.1 l 5.4,8.5 h -5.4 l -4.1,-6.6 c -1.3,-1.9 -2.2,-3.5 -3.2,-4.4 -0.9,-0.9 -1.6,-1.6 -2.2,-2.2 -0.6,-0.3 -1.3,-0.6 -1.9,-0.9 -0.3,0 -1.3,0 -2.2,0 h -4.7 V 284 Z"
   class="st3"
   inkscape:connector-curvature="0"
   style="fill:#214593" />
		<path
   id="path122"
   d="M 614.3,271.1 H 625 l -3.2,-8.8 c -0.9,-2.5 -1.9,-4.7 -2.2,-6.6 -0.3,1.9 -0.9,4.1 -1.6,6 z m -9.1,12.9 12,-31.5 h 4.4 l 12.9,31.5 h -4.7 l -3.8,-9.5 h -13.2 l -3.5,9.5 z"
   class="st3"
   inkscape:connector-curvature="0"
   style="fill:#214593" />
	</g>
	<polygon
   id="polygon126"
   points="651.2,284 647.1,284 647.1,255.9 636.7,255.9 636.7,252.2 661.6,252.2 661.6,255.9 651.2,255.9 "
   class="st3"
   style="fill:#214593" />
	<rect
   id="rect128"
   height="31.5"
   width="4.0999999"
   class="st3"
   y="252.2"
   x="671.40002"
   style="fill:#214593" />
	<g
   id="g134">
		<path
   id="path130"
   d="m 690.3,268.6 c 0,3.8 0.9,6.9 3.2,9.1 1.9,2.2 4.7,3.2 7.6,3.2 3.2,0 5.7,-0.9 7.9,-3.5 1.9,-2.2 3.2,-5.4 3.2,-9.5 0,-2.5 -0.3,-4.7 -1.3,-6.6 -0.9,-1.9 -2.2,-3.5 -3.8,-4.4 -1.6,-0.9 -3.5,-1.6 -5.7,-1.6 -2.8,0 -5.4,0.9 -7.6,3.2 -2.2,1.9 -3.5,5.3 -3.5,10.1 m -4.1,0 c 0,-5.4 1.3,-9.5 4.1,-12.3 2.8,-2.8 6.3,-4.4 11,-4.4 2.8,0 5.7,0.6 7.9,2.2 2.2,1.3 4.1,3.5 5.4,6 1.3,2.5 1.9,5.4 1.9,8.5 0,3.1 -0.6,6 -1.9,8.5 -1.3,2.5 -3.2,4.4 -5.4,5.7 -2.5,1.3 -5,1.9 -7.6,1.9 -2.8,0 -5.7,-0.6 -7.9,-2.2 -2.2,-1.6 -4.1,-3.5 -5.4,-6 -1.4,-2.6 -2.1,-5.1 -2.1,-7.9"
   class="st3"
   inkscape:connector-curvature="0"
   style="fill:#214593" />
		<path
   id="path132"
   d="m 19.1,319.9 c 0,3.8 0.9,6.9 3.2,9.1 2.2,2.2 4.7,3.2 7.6,3.2 3.2,0 5.7,-1.3 7.9,-3.5 1.9,-2.2 3.2,-5.4 3.2,-9.5 0,-2.5 -0.3,-4.7 -1.3,-6.6 -0.9,-1.9 -2.2,-3.5 -3.8,-4.4 -1.6,-0.9 -3.5,-1.6 -5.7,-1.6 -2.8,0 -5.4,0.9 -7.6,3.2 -2.2,2.3 -3.5,5.4 -3.5,10.1 m -4.1,0 c 0,-5.4 1.3,-9.5 4.1,-12.3 2.8,-2.8 6.3,-4.4 11,-4.4 2.8,0 5.7,0.6 7.9,2.2 2.2,1.3 4.1,3.5 5.4,5.7 1.3,2.5 1.9,5.4 1.9,8.5 0,3.2 -0.6,6 -1.9,8.5 -1.3,2.5 -3.2,4.4 -5.4,5.7 -2.5,1.3 -5,1.9 -7.6,1.9 -2.8,0 -5.7,-0.6 -7.9,-2.2 -2.2,-1.6 -4.1,-3.5 -5.4,-6 -1.4,-2.2 -2.1,-4.7 -2.1,-7.6"
   class="st3"
   inkscape:connector-curvature="0"
   style="fill:#214593" />
	</g>
	<polygon
   id="polygon136"
   points="55.1,303.9 76.5,303.9 76.5,307.6 59.5,307.6 59.5,317.4 74.3,317.4 74.3,321.2 59.5,321.2 59.5,335.4 55.1,335.4 "
   class="st3"
   style="fill:#214593" />
	<g
   id="g142">
		<path
   id="path138"
   d="m 106.2,322.5 h 10.7 l -3.2,-8.8 c -0.9,-2.5 -1.9,-4.7 -2.2,-6.6 -0.3,1.9 -0.9,4.1 -1.6,6 z m -9.2,12.9 12,-31.5 h 4.4 l 12.9,31.5 h -4.7 l -3.8,-9.5 h -13.2 l -3.5,9.5 z"
   class="st3"
   inkscape:connector-curvature="0"
   style="fill:#214593" />
		<path
   id="path140"
   d="m 155.3,303.9 h 4.1 v 18.3 c 0,3.2 -0.3,5.7 -0.9,7.6 -0.6,1.9 -1.9,3.5 -3.8,4.4 -1.9,1.3 -4.4,1.9 -7.3,1.9 -2.8,0 -5.4,-0.6 -7.3,-1.6 -1.9,-1 -3.2,-2.5 -4.1,-4.4 -0.9,-1.9 -1.3,-4.4 -1.3,-7.9 v -18.3 h 4.1 v 18.3 c 0,2.8 0.3,4.7 0.6,6 0.6,1.3 1.3,2.2 2.5,3.2 1.3,0.6 2.8,0.9 4.4,0.9 3.2,0 5.4,-0.6 6.6,-2.2 1.3,-1.3 1.9,-4.1 1.9,-8.2 v -18 z"
   class="st3"
   inkscape:connector-curvature="0"
   style="fill:#214593" />
	</g>
	<polygon
   id="polygon144"
   points="183.1,335.4 178.7,335.4 178.7,307.6 168.3,307.6 168.3,303.9 193.5,303.9 193.5,307.6 183.1,307.6 "
   class="st3"
   style="fill:#214593" />
	<g
   id="g152">
		<path
   id="path146"
   d="m 204.2,319.9 c 0,3.8 0.9,6.9 3.2,9.1 2.2,2.2 4.7,3.2 7.6,3.2 3.2,0 5.7,-1.3 7.9,-3.5 1.9,-2.2 3.2,-5.4 3.2,-9.5 0,-2.5 -0.3,-4.7 -1.3,-6.6 -0.9,-1.9 -2.2,-3.5 -3.8,-4.4 -1.6,-0.9 -3.5,-1.6 -5.7,-1.6 -2.8,0 -5.4,0.9 -7.6,3.2 -2.2,2.3 -3.5,5.4 -3.5,10.1 m -4.1,0 c 0,-5.4 1.3,-9.5 4.1,-12.3 2.8,-2.8 6.3,-4.4 11,-4.4 2.8,0 5.7,0.6 7.9,2.2 2.2,1.3 4.1,3.5 5.4,5.7 1.3,2.5 1.9,5.4 1.9,8.5 0,3.2 -0.6,6 -1.9,8.5 -1.3,2.5 -3.2,4.4 -5.4,5.7 -2.5,1.3 -5,1.9 -7.6,1.9 -2.8,0 -5.7,-0.6 -7.9,-2.2 -2.2,-1.6 -4.1,-3.5 -5.4,-6 -1.8,-2.2 -2.1,-4.7 -2.1,-7.6"
   class="st3"
   inkscape:connector-curvature="0"
   style="fill:#214593" />
		<path
   id="path148"
   d="m 239.8,335.4 v -31.5 h 6.3 l 7.6,22.4 c 0.6,2.2 1.3,3.8 1.6,4.7 0.3,-1.3 0.9,-2.8 1.6,-5 l 7.6,-22.1 h 5.7 v 31.5 H 266 v -26.5 l -9.1,26.5 h -3.8 L 244,308.6 v 26.8 z"
   class="st3"
   inkscape:connector-curvature="0"
   style="fill:#214593" />
		<path
   id="path150"
   d="m 286.8,322.5 h 10.7 l -3.2,-8.8 c -0.9,-2.5 -1.9,-4.7 -2.2,-6.6 -0.3,1.9 -0.9,4.1 -1.6,6 z m -9.1,12.9 12,-31.5 h 4.4 l 12.9,31.5 h -4.7 l -3.8,-9.5 h -13.2 l -3.5,9.5 z"
   class="st3"
   inkscape:connector-curvature="0"
   style="fill:#214593" />
	</g>
	<polygon
   id="polygon154"
   points="324,335.4 319.6,335.4 319.6,307.6 309.2,307.6 309.2,303.9 334.4,303.9 334.4,307.6 324,307.6 "
   class="st3"
   style="fill:#214593" />
	<rect
   id="rect156"
   height="31.5"
   width="4.0999999"
   class="st3"
   y="303.89999"
   x="343.89999"
   style="fill:#214593" />
	<g
   id="g164">
		<path
   id="path158"
   d="m 382.3,324.4 4.1,0.9 c -0.9,3.5 -2.5,6 -4.7,7.9 -2.2,1.9 -5,2.8 -8.2,2.8 -3.5,0 -6.3,-0.6 -8.2,-2.2 -2.2,-1.3 -3.8,-3.5 -4.7,-6 -1.3,-2.5 -1.6,-5.4 -1.6,-8.5 0,-3.1 0.6,-6.3 1.9,-8.5 1.3,-2.5 3.2,-4.4 5.4,-5.7 2.2,-1.3 4.7,-1.9 7.6,-1.9 3.2,0 5.7,0.9 7.9,2.5 2.2,1.6 3.8,3.8 4.4,6.9 l -4.1,0.9 c -0.6,-2.2 -1.9,-4.1 -3.2,-5 -1.3,-0.9 -3.2,-1.6 -5.4,-1.6 -2.5,0 -4.4,0.6 -6,1.9 -1.6,1.3 -2.8,2.8 -3.5,4.7 -0.6,1.9 -0.9,4.1 -0.9,6 0,2.5 0.3,5 1.3,6.9 0.6,1.9 1.9,3.5 3.8,4.4 1.6,0.9 3.5,1.6 5.4,1.6 2.2,0 4.4,-0.6 6,-1.9 1.1,-1.4 2.1,-3.6 2.7,-6.1"
   class="st3"
   inkscape:connector-curvature="0"
   style="fill:#214593" />
		<path
   id="path160"
   d="m 435.3,324.4 4.1,0.9 c -0.9,3.5 -2.5,6 -4.7,7.9 -2.2,1.9 -5,2.8 -8.2,2.8 -3.5,0 -6.3,-0.6 -8.2,-2.2 -2.2,-1.3 -3.8,-3.5 -4.7,-6 -1.3,-2.5 -1.6,-5.4 -1.6,-8.5 0,-3.1 0.6,-6.3 1.9,-8.5 1.3,-2.5 3.2,-4.4 5.4,-5.7 2.2,-1.3 4.7,-1.9 7.6,-1.9 3.2,0 5.7,0.9 7.9,2.5 2.2,1.6 3.8,3.8 4.4,6.9 l -4.1,0.9 c -0.6,-2.2 -1.9,-4.1 -3.2,-5 -1.3,-0.9 -3.2,-1.6 -5.4,-1.6 -2.5,0 -4.4,0.6 -6,1.9 -1.6,1.3 -2.8,2.8 -3.5,4.7 -0.6,1.9 -0.9,4.1 -0.9,6 0,2.5 0.3,5 1.3,6.9 0.9,1.9 1.9,3.5 3.8,4.4 1.6,0.9 3.5,1.6 5.4,1.6 2.2,0 4.4,-0.6 6,-1.9 1.1,-1.4 2,-3.6 2.7,-6.1"
   class="st3"
   inkscape:connector-curvature="0"
   style="fill:#214593" />
		<path
   id="path162"
   d="m 452,319.9 c 0,3.8 0.9,6.9 3.2,9.1 1.9,2.2 4.7,3.2 7.6,3.2 3.2,0 5.7,-1.3 7.9,-3.5 1.9,-2.2 3.2,-5.4 3.2,-9.5 0,-2.5 -0.3,-4.7 -1.3,-6.6 -0.9,-1.9 -2.2,-3.5 -3.8,-4.4 -1.6,-0.9 -3.5,-1.6 -5.7,-1.6 -2.8,0 -5.4,0.9 -7.6,3.2 -2.3,2.3 -3.5,5.4 -3.5,10.1 m -4.1,0 c 0,-5.4 1.3,-9.5 4.1,-12.3 2.8,-2.8 6.3,-4.4 11,-4.4 2.8,0 5.7,0.6 7.9,2.2 2.2,1.3 4.1,3.5 5.4,5.7 1.3,2.5 1.9,5.4 1.9,8.5 0,3.2 -0.6,6 -1.9,8.5 -1.3,2.5 -3.2,4.4 -5.4,5.7 -2.5,1.3 -5,1.9 -7.6,1.9 -2.8,0 -5.7,-0.6 -7.9,-2.2 -2.2,-1.6 -4.1,-3.5 -5.4,-6 -1.5,-2.2 -2.1,-4.7 -2.1,-7.6"
   class="st3"
   inkscape:connector-curvature="0"
   style="fill:#214593" />
	</g>
	<polygon
   id="polygon166"
   points="487.9,303.9 492,303.9 508.7,328.8 508.7,303.9 512.5,303.9 512.5,335.4 508.4,335.4 491.7,310.5 491.7,335.4 487.9,335.4 "
   class="st3"
   style="fill:#214593" />
	<polygon
   id="polygon168"
   points="536.2,335.4 532.1,335.4 532.1,307.6 521.7,307.6 521.7,303.9 546.9,303.9 546.9,307.6 536.2,307.6 "
   class="st3"
   style="fill:#214593" />
	<g
   id="g174">
		<path
   id="path170"
   d="m 559.8,317.7 h 9.1 c 1.9,0 3.5,-0.3 4.4,-0.6 0.9,-0.3 1.9,-0.9 2.5,-1.9 0.6,-0.9 0.9,-1.9 0.9,-2.8 0,-1.6 -0.6,-2.8 -1.6,-3.8 -0.9,-0.9 -2.8,-1.6 -5,-1.6 H 560 v 10.7 z m -4.4,17.7 v -31.5 h 13.9 c 2.8,0 5,0.3 6.3,0.9 1.6,0.6 2.5,1.6 3.5,3.2 0.9,1.6 1.3,3.2 1.3,4.7 0,2.2 -0.6,4.1 -2.2,5.7 -1.6,1.6 -3.8,2.5 -6.6,2.8 0.9,0.6 1.9,0.9 2.5,1.6 1.3,1.3 2.5,2.5 3.5,4.1 l 5.4,8.5 h -5.4 l -4.1,-6.6 c -1.3,-1.9 -2.2,-3.5 -3.2,-4.4 -0.6,-0.9 -1.6,-1.6 -2.2,-2.2 -0.6,-0.3 -1.3,-0.6 -1.9,-0.9 -0.3,0 -1.3,0 -2.2,0 h -4.7 v 13.9 h -3.8 v 0.2 z"
   class="st3"
   inkscape:connector-curvature="0"
   style="fill:#214593" />
		<path
   id="path172"
   d="m 594.8,319.9 c 0,3.8 0.9,6.9 3.2,9.1 1.9,2.2 4.7,3.2 7.6,3.2 3.2,0 5.7,-1.3 7.9,-3.5 1.9,-2.2 3.2,-5.4 3.2,-9.5 0,-2.5 -0.3,-4.7 -1.3,-6.6 -0.9,-1.9 -2.2,-3.5 -3.8,-4.4 -1.6,-0.9 -3.5,-1.6 -5.7,-1.6 -2.8,0 -5.7,0.9 -7.6,3.2 -2.6,2.3 -3.5,5.4 -3.5,10.1 m -4.4,0 c 0,-5.4 1.3,-9.5 4.1,-12.3 2.8,-2.8 6.3,-4.4 11,-4.4 2.8,0 5.7,0.6 7.9,2.2 2.2,1.3 4.1,3.5 5.4,5.7 1.3,2.5 1.9,5.4 1.9,8.5 0,3.2 -0.6,6 -1.9,8.5 -1.3,2.5 -3.2,4.4 -5.4,5.7 -2.5,1.3 -5,1.9 -7.6,1.9 -2.8,0 -5.7,-0.6 -7.9,-2.2 -2.2,-1.6 -4.1,-3.5 -5.4,-6 -1.5,-2.2 -2.1,-4.7 -2.1,-7.6"
   class="st3"
   inkscape:connector-curvature="0"
   style="fill:#214593" />
	</g>
	<polygon
   id="polygon176"
   points="634.5,331.6 650,331.6 650,335.4 630.1,335.4 630.1,303.9 634.5,303.9 "
   class="st3"
   style="fill:#214593" />
</g><rect
     id="rect180"
     height="220.39999"
     width="516.70001"
     class="st3"
     y="5"
     x="235.39999"
     style="fill:#214593" /><rect
     id="rect182"
     height="125.5"
     width="27.700001"
     class="st1"
     y="52.599998"
     x="316.10001"
     style="fill:#ffffff" /><polygon
     id="polygon184"
     points="372.2,52.6 372.2,178.1 400,178.1 400,130.2 447.3,130.2 447.3,107.1 400,107.1 400,75.6 460.5,75.6 460.5,52.6 "
     class="st1"
     style="fill:#ffffff" /><path
     id="path186"
     d="m 495.8,129.5 16.4,-46 h 0.3 l 15.8,46 z m 30.9,-76.9 h -28.4 l -47.6,125.5 h 27.7 l 9.8,-28.1 h 47 l 9.5,28.1 h 28.7 z"
     class="st1"
     inkscape:connector-curvature="0"
     style="fill:#ffffff" /><g
     id="g190">
	<path
   id="path188"
   d="M 685.9,69 C 674.2,57.3 658.2,50.1 640.5,50.1 c -35.6,0 -64.6,29 -64.6,64.6 0,35.6 29,64.6 64.6,64.6 17.7,0 33.7,-7.3 45.4,-18.9 l -17.3,-17.3 c -7.3,7.3 -17,11.7 -28.1,11.7 -22.1,0 -39.7,-18 -39.7,-39.7 0,-22.1 18,-39.7 39.7,-39.7 11,0 20.8,4.4 28.1,11.7 z"
   class="st1"
   inkscape:connector-curvature="0"
   style="fill:#ffffff" />
</g><polygon
     id="polygon192"
     points="669.8,107.1 711.4,107.1 690.6,130.8 "
     class="st2"
     style="fill:#f9b03e" /><g
     id="g196">
	<path
   id="path194"
   d="M 219.3,70.3 204.2,56.1 H 37.4 v 28.4 h 38.1 c -8.2,12 -12,26.8 -9.5,42.2 3.2,21.8 18.3,39.7 38.8,47 l 8.5,-24.9 c -11,-4.1 -19.5,-14.2 -21.4,-26.2 -2.8,-18 9.8,-35 27.7,-37.8 18,-2.8 35,9.8 37.8,27.7 2.5,15.8 -6.9,30.9 -21.8,36.3 l -9.1,17 17,8.2 c 27.4,-9.1 44.5,-36.6 40,-65.6 -1.3,-8.8 -4.7,-17 -9.5,-24 h 29.9 z"
   class="st1"
   inkscape:connector-curvature="0"
   style="fill:#ffffff" />
</g></g>
</svg>